<?xml version="1.0" standalone="no"?><!DOCTYPE svg PUBLIC "-//W3C//DTD SVG 1.1//EN" "http://www.w3.org/Graphics/SVG/1.1/DTD/svg11.dtd"><svg class="icon" width="200px" height="200.00px" viewBox="0 0 1024 1024" version="1.1" xmlns="http://www.w3.org/2000/svg"><path fill="#000000" d="M237.90592 436.9408c13.29152 0 22.3232-10.04544 22.51776-24.99584a267.39712 267.39712 0 0 1 13.73184-80.9472c35.18464-105.79968 134.16448-175.872 244.38784-172.11392 95.09888 3.30752 167.26016 48.95744 214.48704 135.66976 24.90368 45.69088 34.19136 93.82912 27.5968 143.03232-3.87072 28.928-14.29504 57.72288-33.75104 93.36832-56.92416 104.2432-136.18176 189.88032-206.19264 259.90144-1.14688 1.13664-4.62848 4.61824-9.70752 4.61824-4.68992 0-7.7312-2.85696-9.75872-4.74112l-0.45056-0.41984a1219.82976 1219.82976 0 0 1-68.64896-68.7616c-47.01184-51.15904-105.96352-120.63744-144.82432-204.51328-3.96288-8.54016-11.59168-13.64992-20.41856-13.64992-3.29728 0-6.56384 0.73728-9.68704 2.17088-11.4176 5.26336-15.81056 18.03264-10.45504 30.35136a442.368 442.368 0 0 0 25.41568 49.31584c52.9408 89.18016 123.2384 171.33568 221.19424 258.60096 13.57824 12.10368 23.48032 11.91936 36.99712-0.64512a1498.33728 1498.33728 0 0 0 129.85344-137.4208c51.94752-62.464 86.75328-113.94048 112.85504-166.92224 23.6032-47.93344 34.34496-86.8864 34.77504-126.28992-1.10592-64.73728-20.46976-123.97568-57.56928-175.85152-55.0912-77.06624-144.39424-123.0848-238.83776-123.0848-21.12512 0-42.1888 2.37568-62.59712 7.05536C311.81824 152.08448 215.86944 271.872 215.48032 411.9552c-0.02048 7.168 2.28352 13.6192 6.48192 18.16576 4.07552 4.46464 9.59488 6.8096 15.94368 6.81984z"  /><path fill="#000000" d="M511.36512 520.45824c30.37184 0 58.97216-11.74528 80.49664-33.08544 21.54496-21.34016 33.41312-49.67424 33.40288-79.7696C625.2544 345.51808 574.45376 294.89152 512 294.77888c-63.0272 0-114.1248 50.61632-114.13504 112.8448 0 62.08512 50.7904 112.71168 113.23392 112.8448m1.6384-44.65664h-0.68608a69.2224 69.2224 0 0 1-49.152-20.1728 67.36896 67.36896 0 0 1-20.04992-48.16896c0.07168-37.51936 31.05792-68.0448 69.07904-68.05504h0.02048c37.51936 0 68.15744 30.4128 68.31104 67.7888 0.18432 37.48864-30.11584 68.25984-67.52256 68.608z"  /></svg>