<?xml version="1.0" standalone="no"?><!DOCTYPE svg PUBLIC "-//W3C//DTD SVG 1.1//EN" "http://www.w3.org/Graphics/SVG/1.1/DTD/svg11.dtd"><svg t="1563424064486" class="icon" viewBox="0 0 1024 1024" version="1.1" xmlns="http://www.w3.org/2000/svg" p-id="25541" xmlns:xlink="http://www.w3.org/1999/xlink" width="200" height="200"><defs><style type="text/css"></style></defs><path d="M902.03 137.094h-0.25c-2.437 0-4.812 0.25-7.155 0.75-15.688 3.25-35.594 6-59.063 6-37.906-0.25-75.5-6.625-111.406-18.813-87.47-28.875-154.688-84.062-188.313-116-5.813-5.688-13.625-8.813-21.75-8.813a33.35 33.35 0 0 0-24.221 10.625 421.21 421.21 0 0 1-189.029 114.188c-47.625 13.75-86.969 18.25-118.283 18.25-18.499 0.188-36.969-1.625-55.094-5.312-17.437-3.313-34.248 8.125-37.625 25.5-0.375 2.063-0.592 4.25-0.563 6.375V537.28c0 230.375 179.345 420.25 413.188 485.188a35.375 35.375 0 0 0 19.093 0c229.906-66.312 413.157-254.874 413.157-485.188V169.406c-0.06-17.937-14.716-32.437-32.686-32.312z m-9.561 400.186c0 196.313-156.438 378.563-380.656 443.938C284.25 917.343 131.531 739.094 131.531 537.28V181.719c16.157 2.563 33.187 3.875 51.031 3.875 40.282 0 84.063-6.688 130.063-19.875 76.187-22 145.593-63 201.594-119.188 37.312 34.25 107.063 89.125 196.688 118.625 41.906 13.875 83.874 20.938 124.656 20.938 19.844 0 39.281-1.688 56.905-4.875V537.28z" fill="#FF9908" p-id="25542"></path><path d="M709.407 362.655h-0.063L479.749 617.344 365.938 515.655c-9.28-7.124-22.594-5.374-29.719 3.875-6.375 8.25-5.781 19.938 1.405 27.5l129.688 115.938c8.592 7.813 22.063 6.999 29.875-1.563l243.718-270.5c7.719-8.688 6.999-22.063-1.688-29.813-8.654-7.811-21.998-7.123-29.81 1.563z" fill="#FF9908" p-id="25543"></path></svg>