<?xml version="1.0" standalone="no"?><!DOCTYPE svg PUBLIC "-//W3C//DTD SVG 1.1//EN" "http://www.w3.org/Graphics/SVG/1.1/DTD/svg11.dtd"><svg class="icon" width="200px" height="200.00px" viewBox="0 0 1024 1024" version="1.1" xmlns="http://www.w3.org/2000/svg"><path d="M503.293424 20.078431A796.207531 796.207531 0 0 1 121.092487 127.044942a17.768523 17.768523 0 0 0-17.768524 17.768523v524.349124C103.323963 894.467465 463.669617 995.037307 507.557869 1005.698421a18.834635 18.834635 0 0 0 8.884262 0C560.330383 995.037307 920.676037 894.467465 920.676037 669.162589V144.63578a17.768523 17.768523 0 0 0-17.768524-17.768523 796.207531 796.207531 0 0 1-382.556307-106.61114 17.768523 17.768523 0 0 0-17.057782-0.177686z" fill="#FFFFFF" /><path d="M512 1024a38.02464 38.02464 0 0 1-8.884262-1.066111C460.471282 1012.80583 85.55544 908.149228 85.55544 669.162589V144.63578a35.537047 35.537047 0 0 1 35.537047-35.537047A782.881138 782.881138 0 0 0 494.231477 4.797501a35.537047 35.537047 0 0 1 35.537046 0 782.881138 782.881138 0 0 0 373.13899 104.478918 35.537047 35.537047 0 0 1 35.537047 35.537046v524.349124C938.44456 908.149228 563.528718 1012.80583 520.884262 1022.933889a38.02464 38.02464 0 0 1-8.884262 1.066111zM512 35.537047A815.930592 815.930592 0 0 1 121.092487 144.813465v524.349124c0 212.156169 350.928336 308.994621 390.907513 319.83342 39.979178-10.305744 390.907513-106.61114 390.907513-319.83342V144.63578A813.620684 813.620684 0 0 1 512 35.537047z m-8.706576-15.458616z" fill="#22AC38" /><path d="M504.359535 88.842617a692.97241 692.97241 0 0 1-332.626757 93.107062 15.28093 15.28093 0 0 0-15.103245 15.28093v446.878362c0 195.453757 313.436752 282.697206 351.639077 292.647579a17.768523 17.768523 0 0 0 7.46278 0C553.933715 926.806177 867.370467 839.918098 867.370467 644.108971V197.230609a15.28093 15.28093 0 0 0-15.103245-15.28093A692.97241 692.97241 0 0 1 519.640465 88.842617a15.636301 15.636301 0 0 0-15.28093 0z" fill="#D3EED7" /><path d="M512 518.130141m-124.379663 0a124.379663 124.379663 0 1 0 248.759326 0 124.379663 124.379663 0 1 0-248.759326 0Z" fill="#FFFFFF" /><path d="M512 651.394066a133.263925 133.263925 0 1 1 133.263925-133.263925 133.44161 133.44161 0 0 1-133.263925 133.263925z m0-248.759327a115.495402 115.495402 0 1 0 115.495402 115.495402 115.673087 115.673087 0 0 0-115.495402-115.495402zM512 313.792122a8.706576 8.706576 0 0 1-4.975187-1.599167l-53.30557-35.537047a8.884262 8.884262 0 0 1-2.487593-12.260281 9.061947 9.061947 0 0 1 12.437967-2.487593L512 294.246746l48.330383-32.338712a9.061947 9.061947 0 0 1 12.437967 2.487593 8.884262 8.884262 0 0 1-2.487593 12.260281l-53.30557 35.537047a8.706576 8.706576 0 0 1-4.975187 1.599167zM565.30557 775.773729a8.706576 8.706576 0 0 1-4.975187-1.599167L512 742.013535l-48.330383 32.161027a8.884262 8.884262 0 1 1-9.950374-14.747875l53.30557-35.537046a9.239632 9.239632 0 0 1 9.950374 0l53.30557 35.537046a8.884262 8.884262 0 0 1 2.487593 12.260282 9.061947 9.061947 0 0 1-7.46278 4.08676zM725.22228 388.775291h-1.776852l-62.722888-12.615652a8.528891 8.528891 0 0 1-6.929724-6.929724l-12.615651-62.722887a8.706576 8.706576 0 0 1 6.929724-10.483429 8.884262 8.884262 0 0 1 10.483429 6.929724l11.371854 57.03696 57.03696 11.371855a8.706576 8.706576 0 0 1 6.929724 10.483429 8.884262 8.884262 0 0 1-8.706576 6.929724zM373.760888 740.592053a9.061947 9.061947 0 0 1-8.706576-7.10741l-11.371855-57.03696-57.03696-11.371854a8.884262 8.884262 0 0 1 3.553705-17.768524l62.722887 12.437967a8.706576 8.706576 0 0 1 6.929724 6.929724l12.615652 62.900572a8.884262 8.884262 0 0 1-6.929724 10.483429zM760.759327 580.319972a9.061947 9.061947 0 0 1-7.46278-4.08676l-35.537047-53.30557a8.884262 8.884262 0 0 1 0-9.772688l35.537047-53.30557a9.061947 9.061947 0 0 1 12.437966-2.487593 8.884262 8.884262 0 0 1 2.487594 12.260281l-32.338713 48.508069 32.338713 48.330383a8.884262 8.884262 0 0 1-2.487594 12.260281 8.706576 8.706576 0 0 1-4.975186 1.599167zM263.240673 580.319972a8.706576 8.706576 0 0 1-4.975186-1.599167 8.884262 8.884262 0 0 1-2.487594-12.260281l32.338713-48.330383-32.338713-48.508069a8.884262 8.884262 0 0 1 2.487594-12.260281 9.061947 9.061947 0 0 1 12.437966 2.487593l35.537047 53.30557a8.884262 8.884262 0 0 1 0 9.772688l-35.537047 53.30557a9.061947 9.061947 0 0 1-7.46278 4.08676zM650.239112 740.592053h-1.776853a8.884262 8.884262 0 0 1-6.929724-10.483429l12.615652-63.078258a8.706576 8.706576 0 0 1 6.929724-6.929724l62.722887-12.437966a8.884262 8.884262 0 1 1 3.553705 17.768523l-57.03696 11.371855-11.371855 57.03696a9.061947 9.061947 0 0 1-8.706576 6.752039zM298.77772 388.775291a8.884262 8.884262 0 0 1-8.706576-7.10741 8.706576 8.706576 0 0 1 6.929724-10.483428l57.03696-11.371855 11.016484-57.747701a8.884262 8.884262 0 0 1 10.483429-6.929724 8.706576 8.706576 0 0 1 6.929724 10.483428L369.851813 369.05223a8.528891 8.528891 0 0 1-6.929724 6.929724l-62.722887 12.615651z" fill="#22AC38" /></svg>