<?xml version="1.0" standalone="no"?><!DOCTYPE svg PUBLIC "-//W3C//DTD SVG 1.1//EN" "http://www.w3.org/Graphics/SVG/1.1/DTD/svg11.dtd"><svg t="1563424138610" class="icon" viewBox="0 0 1024 1024" version="1.1" xmlns="http://www.w3.org/2000/svg" p-id="27245" xmlns:xlink="http://www.w3.org/1999/xlink" width="200" height="200"><defs><style type="text/css"></style></defs><path d="M512 544.497822a31.86061 31.86061 0 0 0-31.86061 31.86061v223.024269a31.86061 31.86061 0 0 0 63.72122 0v-223.024269a31.86061 31.86061 0 0 0-31.86061-31.86061z" fill="#F57291" p-id="27246"></path><path d="M512 464.846297m-47.790915 0a47.790915 47.790915 0 1 0 95.58183 0 47.790915 47.790915 0 1 0-95.58183 0Z" fill="#F57291" p-id="27247"></path><path d="M512 0l-446.048538 191.163659v281.966397C65.951462 905.478531 482.051027 1020.176727 486.511512 1022.40697l6.372122 1.59303h6.372122a573.490977 573.490977 0 0 0 336.129434-197.535781 513.59303 513.59303 0 0 0 122.981954-318.606098V190.207841z m382.327318 506.902302a455.288114 455.288114 0 0 1-107.370255 275.594275v1.593031A516.779091 516.779091 0 0 1 496.388301 958.68575C448.27878 942.436839 129.672682 829.013068 129.672682 472.174238V232.263846l382.327318-162.807717L894.327318 232.263846z" fill="#F57291" p-id="27248"></path><path d="M512 353.334163a111.512134 111.512134 0 0 1 74.235221 194.668326 31.86061 31.86061 0 1 0 42.374611 47.472309 175.233354 175.233354 0 1 0-233.856876 0 31.86061 31.86061 0 1 0 42.374611-47.472309A111.512134 111.512134 0 0 1 512 353.334163z" fill="#F57291" p-id="27249"></path><path d="M225.254512 464.846297a286.745488 286.745488 0 0 0 179.056627 265.717486 31.86061 31.86061 0 1 0 23.895457-58.623522 223.024269 223.024269 0 1 1 167.268202 0 31.86061 31.86061 0 1 0 23.895457 58.942129A286.745488 286.745488 0 1 0 225.254512 464.846297z" fill="#F57291" p-id="27250"></path></svg>