<?xml version="1.0" standalone="no"?><!DOCTYPE svg PUBLIC "-//W3C//DTD SVG 1.1//EN" "http://www.w3.org/Graphics/SVG/1.1/DTD/svg11.dtd"><svg class="icon" width="200px" height="200.00px" viewBox="0 0 1024 1024" version="1.1" xmlns="http://www.w3.org/2000/svg"><path fill="#515151" d="M512 960C264.576 960 64 759.424 64 512S264.576 64 512 64s448 200.576 448 448-200.576 448-448 448z m0-64c212.077 0 384-171.923 384-384S724.077 128 512 128 128 299.923 128 512s171.923 384 384 384z m31.535-415.465v64h125c17.673 0 32 14.327 32 32 0 17.673-14.327 32-32 32h-125v147c0 17.673-14.327 32-32 32-17.673 0-32-14.327-32-32v-147h-125c-17.673 0-32-14.327-32-32 0-17.673 14.327-32 32-32h125v-64h-125c-17.673 0-32-14.327-32-32 0-17.673 14.327-32 32-32h83.745L312.373 290.627c-12.497-12.496-12.497-32.758 0-45.254 12.496-12.497 32.758-12.497 45.254 0L511.535 399.28l153.907-153.907c12.497-12.497 32.758-12.497 45.255 0 12.497 12.496 12.497 32.758 0 45.254L584.79 416.535h83.745c17.673 0 32 14.327 32 32 0 17.673-14.327 32-32 32h-125z" /></svg>