<?xml version="1.0" standalone="no"?><!DOCTYPE svg PUBLIC "-//W3C//DTD SVG 1.1//EN" "http://www.w3.org/Graphics/SVG/1.1/DTD/svg11.dtd"><svg t="1563427509384" class="icon" viewBox="0 0 1024 1024" version="1.1" xmlns="http://www.w3.org/2000/svg" p-id="30837" xmlns:xlink="http://www.w3.org/1999/xlink" width="200" height="200"><defs><style type="text/css"></style></defs><path d="M322.43712 354.72384L665.50784 240.9472l-67.79904-94.12608-222.96576 160.45056-71.15776 51.2h7.60832zM786.81088 358.47168l-9.69728-29.05088-21.4016-64.52224-7.99744 2.67264-274.00192 90.90048zM844.60544 358.47168c14.20288 0 25.6 11.49952 25.6 25.6v121.97888l28.49792-14.20288 22.70208-11.39712V343.12192a35.84 35.84 0 0 0-35.79904-35.85024H823.7056l16.9984 51.2h3.90144zM870.20544 870.4h15.40096a35.84 35.84 0 0 0 35.79904-35.90144v-86.09792l-51.2 25.6V870.4z" fill="#b7a461" p-id="30838"></path><path d="M639.90784 665.6c0-70.5536 57.3952-128 127.8976-128h39.19872l12.00128-6.05184v-86.97856a35.82976 35.82976 0 0 0-35.79904-35.85024H172.73856a25.42592 25.42592 0 0 1-19.1488-24.64768c0-14.10048 11.44832-25.6 25.6-25.6h36.80256l19.54816-14.10048 51.54816-37.09952H179.18976a76.8 76.8 0 0 0-76.8 76.8V844.8c0 42.40384 34.34496 76.8 76.8 76.8h460.71808c3.79904 0 7.49568-0.39936 11.20256-1.00352h132.096a35.76832 35.76832 0 0 0 35.79904-35.79904V793.6h-51.2c-70.49216 0-127.8976-57.3952-127.8976-128z" fill="#0b273d" p-id="30839"></path><path d="M819.00544 588.8h-51.2c-42.40384 0-76.6976 34.44736-76.6976 76.8 0 42.40384 34.304 76.8 76.6976 76.8h51.2l102.4-51.2 0.2048-153.6-102.6048 51.2z m-51.2 102.4c-14.10048 0-25.6-11.49952-25.6-25.6s11.49952-25.6 25.6-25.6c14.20288 0 25.6 11.49952 25.6 25.6s-11.39712 25.6-25.6 25.6z" fill="#b7a461" p-id="30840"></path></svg>