<?xml version="1.0" standalone="no"?><!DOCTYPE svg PUBLIC "-//W3C//DTD SVG 1.1//EN" "http://www.w3.org/Graphics/SVG/1.1/DTD/svg11.dtd"><svg class="icon" width="200px" height="200.00px" viewBox="0 0 1024 1024" version="1.1" xmlns="http://www.w3.org/2000/svg"><path fill="#333333" d="M775.736264 223.84016c-28.835165 0-52.235764 23.400599-52.235764 52.235764 0 16.943057 8.055944 32.031968 20.587413 41.558442C720.559441 423.704296 625.87013 503.176823 512.895105 503.176823c-112.975025 0-207.728272-79.536464-231.192807-185.542458C294.233766 308.107892 302.28971 293.018981 302.28971 276.13986c0-28.835165-23.400599-52.235764-52.235764-52.235764S197.754246 247.240759 197.754246 276.13986c0 18.989011 10.101898 35.612388 25.254745 44.755245 1.214785 1.086913 2.685315 2.045954 4.411588 2.877123 22.825175 136.951049 142.12987 241.742258 285.474525 241.742258 143.344655 0 262.649351-104.791209 285.474525-241.742258 1.918082-0.895105 3.452547-1.918082 4.667333-3.068931 14.961039-9.206793 24.999001-25.702298 24.999001-44.563437C827.972028 247.240759 804.571429 223.84016 775.736264 223.84016zM902.201798 0 121.798202 0C56.455544 0 3.260739 53.194805 3.260739 118.537463l0 786.925075c0 65.342657 53.194805 118.537463 118.537463 118.537463l780.403596 0c65.342657 0 118.537463-53.194805 118.537463-118.537463L1020.739261 118.537463C1020.739261 53.194805 967.544456 0 902.201798 0zM948.555445 905.462537c0 25.574426-20.779221 46.353646-46.353646 46.353646L121.798202 951.816184c-25.574426 0-46.353646-20.779221-46.353646-46.353646L75.444555 118.537463c0-25.574426 20.779221-46.353646 46.353646-46.353646l780.403596 0c25.574426 0 46.353646 20.779221 46.353646 46.353646L948.555445 905.462537z" /></svg>