<?xml version="1.0" standalone="no"?><!DOCTYPE svg PUBLIC "-//W3C//DTD SVG 1.1//EN" "http://www.w3.org/Graphics/SVG/1.1/DTD/svg11.dtd"><svg t="1563500649137" class="icon" viewBox="0 0 1024 1024" version="1.1" xmlns="http://www.w3.org/2000/svg" p-id="12340" xmlns:xlink="http://www.w3.org/1999/xlink" width="200" height="200"><defs><style type="text/css"></style></defs><path d="M854.6 222.1c29.1 0 52.7 23.6 52.7 52.7v474.4c0 29.1-23.6 52.7-52.7 52.7H169.4c-29.1 0-52.7-23.6-52.7-52.7V274.8c0-29.1 23.6-52.7 52.7-52.7h685.2m0-52.7H169.4C111.2 169.4 64 216.6 64 274.8v474.4c0 58.2 47.2 105.4 105.4 105.4h685.2c58.2 0 105.4-47.2 105.4-105.4V274.8c0-58.2-47.2-105.4-105.4-105.4z" fill="#727272" p-id="12341"></path><path d="M656.9 367.1c29.1 0 52.7 23.6 52.7 52.7s-23.6 52.7-52.7 52.7-52.7-23.6-52.7-52.7 23.7-52.7 52.7-52.7m0-52.8c-58.2 0-105.4 47.2-105.4 105.4s47.2 105.4 105.4 105.4 105.4-47.2 105.4-105.4c0.1-58.2-47.1-105.4-105.4-105.4z" fill="#727272" p-id="12342"></path><path d="M815.1 709.7c-14.6 0-26.4-11.8-26.4-26.4 0-72.7-59.1-131.8-131.8-131.8s-131.8 59.1-131.8 131.8c0 14.6-11.8 26.4-26.4 26.4s-26.4-11.8-26.4-26.4c0-101.7 82.8-184.5 184.5-184.5s184.5 82.8 184.5 184.5c0.1 14.6-11.7 26.4-26.2 26.4z" fill="#727272" p-id="12343"></path><path d="M208.9 367.1h210.8c14.6 0 26.4 11.8 26.4 26.4 0 14.5-11.8 26.3-26.4 26.3H208.9c-14.6 0-26.4-11.8-26.4-26.3 0.1-14.6 11.9-26.4 26.4-26.4zM208.9 525.2h105.4c14.6 0 26.4 11.8 26.4 26.4 0 14.5-11.8 26.4-26.4 26.4H208.9c-14.6 0-26.4-11.8-26.4-26.4 0.1-14.6 11.9-26.4 26.4-26.4z" fill="#727272" p-id="12344"></path></svg>