<?xml version="1.0" standalone="no"?><!DOCTYPE svg PUBLIC "-//W3C//DTD SVG 1.1//EN" "http://www.w3.org/Graphics/SVG/1.1/DTD/svg11.dtd"><svg class="icon" width="200px" height="200.00px" viewBox="0 0 1024 1024" version="1.1" xmlns="http://www.w3.org/2000/svg"><path fill="#ffffff" d="M547 305.6c0-19.3-15.7-35-35-35s-35 15.7-35 35V477H305.6c-19.3 0-35 15.7-35 35s15.7 35 35 35H477v171.4c0 19.3 15.7 35 35 35s35-15.7 35-35V547h171.4c19.3 0 35-15.7 35-35s-15.7-35-35-35H547V305.6z"  /><path fill="#ffffff" d="M1008 440l-95.8-61.8-61.8 95.8 47.7-10.3c1.9 16 2.8 32.2 2.8 48.3 0 225.5-183.5 409-409 409S83 737.5 83 512s183.5-409 409-409c19.9 0 39.8 1.4 59.4 4.3 19.1 2.8 36.9-10.5 39.7-29.6 2.8-19.1-10.5-36.9-29.6-39.7-22.9-3.3-46.3-5-69.5-5-64.6 0-127.4 12.7-186.5 37.7-57 24.1-108.3 58.7-152.2 102.6S74.8 268.5 50.7 325.5C25.7 384.6 13 447.4 13 512s12.7 127.4 37.7 186.5c24.1 57 58.7 108.3 102.6 152.2s95.2 78.5 152.2 102.6c59.1 25 121.8 37.7 186.5 37.7s127.4-12.7 186.5-37.7c57-24.1 108.3-58.7 152.2-102.6s78.5-95.2 102.6-152.2c25-59.1 37.7-121.8 37.7-186.5 0-21.1-1.4-42.3-4.2-63.1l41.2-8.9z"  /></svg>