<?xml version="1.0" standalone="no"?><!DOCTYPE svg PUBLIC "-//W3C//DTD SVG 1.1//EN" "http://www.w3.org/Graphics/SVG/1.1/DTD/svg11.dtd"><svg class="icon" width="200px" height="200.00px" viewBox="0 0 1024 1024" version="1.1" xmlns="http://www.w3.org/2000/svg"><path fill="#ffffff" d="M541.696 142.848c-10.24-5.12-23.04-3.584-31.744 3.584-0.512 0.512-44.544 35.328-93.184 71.168C331.776 280.064 307.2 290.816 302.08 292.352H169.984c-24.576 0-46.592 10.24-61.44 29.184-12.8 15.872-19.456 37.376-19.456 60.928v264.704c0 49.664 40.448 90.112 89.6 90.112h37.376c16.384 0 30.208-13.312 30.208-30.208 0-16.384-13.312-30.208-30.208-30.208h-37.376c-16.384 0-29.696-13.312-29.696-29.696V382.464c0-11.264 2.56-29.696 20.48-29.696h134.656c15.36 0 38.912-6.144 142.336-81.92 18.432-13.312 36.352-27.136 51.712-38.912V793.6c-12.8-10.752-26.624-22.016-40.96-33.792-94.208-76.288-117.76-82.944-133.632-82.944-16.384 0-30.208 13.312-30.208 30.208 0 15.872 12.288 28.672 27.648 30.208 4.608 1.536 27.136 11.776 103.936 74.24 43.52 35.84 82.944 70.656 83.456 70.656 5.632 5.12 12.8 7.68 19.968 7.68 4.096 0 8.192-1.024 12.288-2.56 10.752-4.608 17.92-15.872 17.92-27.648V169.984c0.512-11.264-6.144-22.016-16.896-27.136zM775.168 194.048c-14.848-7.68-32.768-2.048-40.96 12.288-7.68 14.848-2.048 32.768 12.288 40.96 99.328 52.736 160.768 154.624 160.768 266.24s-61.44 213.504-160.768 266.24c-14.848 7.68-20.48 26.112-12.288 40.96 5.632 10.24 15.872 15.872 26.624 15.872 4.608 0 9.728-1.024 14.336-3.584 118.784-62.976 192.512-185.856 192.512-319.488s-73.728-256-192.512-319.488zM778.752 626.176c20.992-33.28 31.744-72.192 31.744-112.128 0-39.936-10.752-78.336-31.744-112.128-20.48-32.768-49.152-58.88-82.944-76.288-14.848-7.68-32.768-1.536-40.448 13.312s-1.536 32.768 13.312 40.448c50.176 25.6 81.408 77.312 81.408 134.656 0 57.344-31.232 109.056-81.408 134.656-14.848 7.68-20.992 25.6-13.312 40.448 5.12 10.24 15.872 16.384 27.136 16.384 4.608 0 9.216-1.024 13.824-3.072 33.792-17.408 61.952-44.032 82.432-76.288z" /></svg>