<?xml version="1.0" standalone="no"?><!DOCTYPE svg PUBLIC "-//W3C//DTD SVG 1.1//EN" "http://www.w3.org/Graphics/SVG/1.1/DTD/svg11.dtd"><svg t="1564152833437" class="icon" viewBox="0 0 1024 1024" version="1.1" xmlns="http://www.w3.org/2000/svg" p-id="16256" xmlns:xlink="http://www.w3.org/1999/xlink" width="200" height="200"><defs><style type="text/css"></style></defs><path d="M575.2 634l-113.9-48.6v-60.3c22.2-11.3 31.3-75.8 31.3-75.8 25.5 1.1 21.8-48.1 22.2-68.5 0.4-20.4-10.6-16.4-10.6-16.4 5.8-39 3.3-68.8 3.3-68.8-15.3-96.2-116.9-97.2-116.9-97.2l-0.1 11-0.1-11s-101.6 1.1-116.9 97.2c0 0-2.5 29.9 3.3 68.8 0 0-10.9-4-10.6 16.4 0.4 20.4-3.3 69.6 22.2 68.5 0 0 9.1 64.5 31.3 75.8v60.3L206 634S85.9 642.5 68.8 764.8c0 0-20.1 70.6 23.6 70.6H688.8c43.7 0 23.6-70.6 23.6-70.6C695.3 642.5 575.2 634 575.2 634z" p-id="16257"></path><path d="M952.8 770.8C937.2 659 827.4 651.3 827.4 651.3l-104.1-44.5v-55.1c20.3-10.3 28.6-69.3 28.6-69.3 23.3 1 20-44 20.3-62.6 0.3-18.6-9.6-15-9.6-15 5.3-35.6 3-62.9 3-62.9-14-87.9-106.9-88.9-106.9-88.9l-0.1 10-0.1-10s-92.9 1-106.8 88.9c0 0-2.3 27.3 3 62.9 0 0-10-3.7-9.6 15 0.3 18.6-3 63.6 20.3 62.6 0 0 8.3 58.9 28.6 69.3v55.1l-3.9 1.7c22.7 2.9 136 23.5 153.6 149.8 0 0 17.2 60.7-10.6 77.1h198.1c39.9 0 21.6-64.6 21.6-64.6z" p-id="16258"></path></svg>