<?xml version="1.0" standalone="no"?><!DOCTYPE svg PUBLIC "-//W3C//DTD SVG 1.1//EN" "http://www.w3.org/Graphics/SVG/1.1/DTD/svg11.dtd"><svg class="icon" width="200px" height="200.00px" viewBox="0 0 1024 1024" version="1.1" xmlns="http://www.w3.org/2000/svg"><path d="M 510.888 512 m -446.709 0 a 446.709 446.709 0 1 0 893.418 0 a 446.709 446.709 0 1 0 -893.418 0 Z" fill="#ffffff" /><path d="M 510.879 578.903 c -123.674 0 -224.282 -100.607 -224.282 -224.282 s 100.607 -224.282 224.282 -224.282 s 224.282 100.607 224.282 224.282 s -100.608 224.282 -224.282 224.282 Z m 0 -364.806 c -77.4868 0 -140.523 63.0367 -140.523 140.523 s 63.0367 140.523 140.523 140.523 s 140.523 -63.0367 140.523 -140.523 s -63.0367 -140.523 -140.523 -140.523 Z" fill="#f9193b" /><path d="M 510.879 896.635 c -23.1206 0 -41.8788 -18.7449 -41.8788 -41.8788 V 537.024 c 0 -23.1339 18.7582 -41.8788 41.8788 -41.8788 s 41.8788 18.7449 41.8788 41.8788 v 317.732 c 0 23.1339 -18.7582 41.8788 -41.8788 41.8788 Z" fill="#f9193b" /><path d="M 669.753 737.763 H 352.034 c -23.1206 0 -41.8788 -18.7449 -41.8788 -41.8788 s 18.7582 -41.8788 41.8788 -41.8788 h 317.719 c 23.1206 0 41.8788 18.7449 41.8788 41.8788 s -18.7582 41.8788 -41.8788 41.8788 Z" fill="#f9193b" /></svg>