<?xml version="1.0" standalone="no"?><!DOCTYPE svg PUBLIC "-//W3C//DTD SVG 1.1//EN" "http://www.w3.org/Graphics/SVG/1.1/DTD/svg11.dtd"><svg t="1563500544420" class="icon" viewBox="0 0 1027 1024" version="1.1" xmlns="http://www.w3.org/2000/svg" p-id="7015" xmlns:xlink="http://www.w3.org/1999/xlink" width="200.5859375" height="200"><defs><style type="text/css"></style></defs><path d="M512.768128 1024c-93.649175 0-185.251374-25.587206-265.083458-73.691154-16.887556-10.234883-22.516742-32.23988-12.281859-49.127437 10.234883-16.887556 32.23988-22.004998 49.127436-12.281859 68.573713 41.451274 147.382309 63.456272 228.237881 63.456272 243.590205 0 441.635182-197.533233 441.635182-440.611694 0-243.078461-198.044978-440.611694-441.635182-440.611694s-441.635182 197.533233-441.635182 440.611694c0 85.973013 24.563718 168.875562 71.644177 240.51974 10.746627 16.375812 6.14093 38.38081-10.234882 49.127436-16.375812 10.746627-38.38081 6.14093-49.639181-10.234882-54.244878-82.902549-82.902549-179.622189-82.902548-279.412294 0-136.635682 53.221389-265.083458 150.452773-361.803099 96.71964-96.71964 225.67916-149.941029 362.826587-149.941029 137.147426 0 266.106947 53.221389 362.826587 149.941029 96.71964 96.71964 150.452774 225.167416 150.452773 361.803099 0 136.635682-53.221389 265.083458-150.452773 361.803098-97.231384 97.231384-226.190905 150.452774-363.338331 150.452774z" fill="#707070" p-id="7016"></path><path d="M290.159432 241.031484c13.305347-12.281859 35.822089-2.558721 35.822089 15.864068v507.650175c0 12.281859-9.723138 20.981509-20.981509 20.981509h-1.535232c-11.258371 0-20.981509-8.69965-20.98151-20.981509v-459.034483c-13.305347 12.281859-26.098951 24.563718-39.404297 36.845578-8.69965 7.676162-21.493253 7.164418-29.169416-0.511745-4.605697-5.117441-6.14093-9.723138-6.140929-15.864068 0-5.629185 2.558721-10.746627 7.164417-14.840579l75.226387-70.108946z m465.687157 15.864068c11.258371 0 20.981509 9.723138 20.981509 20.981509v1.023489c0 11.258371-9.723138 20.981509-20.981509 20.981509h-363.338331c-11.258371 0-20.981509-9.723138-20.981509-20.981509v-1.023489c0-11.258371 9.723138-20.981509 20.981509-20.981509h160.175912v-25.587206c0-12.281859 9.723138-20.981509 20.981509-20.981509h0.511744c11.258371 0 20.981509 8.69965 20.98151 20.981509v25.587206h160.687656z m-374.084958 362.314843c0-8.69965 2.046977-17.911044 5.117441-26.098951 11.258371-24.563718 34.286857-41.963018 62.432784-41.963018h250.242879c18.422789 0 34.798601 7.676162 47.592204 20.469765 12.793603 12.793603 20.469765 29.681159 20.469765 47.592204v98.766616c0 28.145927-16.375812 51.174413-41.963019 62.432784-7.676162 3.582209-16.375812 5.117441-26.09895 5.117441h-250.242879c-36.845577 0-67.550225-29.681159-67.550225-67.03848v-99.278361z m359.756122-258.942529c11.258371 0 20.981509 9.723138 20.981509 20.981509v1.023489c0 10.746627-9.723138 20.981509-20.981509 20.981509h-334.168915c-11.258371 0-20.981509-10.234883-20.98151-20.981509v-1.023489c0-11.258371 9.723138-20.981509 20.98151-20.981509h334.168915z m0 101.325337c11.258371 0 20.981509 10.234883 20.981509 20.98151v1.023488c0 11.258371-9.723138 20.981509-20.981509 20.981509h-334.168915c-11.258371 0-20.981509-9.723138-20.98151-20.981509v-1.023488c0-10.746627 9.723138-20.981509 20.98151-20.98151h334.168915z m-316.257871 256.895553c0 14.84058 9.723138 24.563718 24.051974 24.563718h250.242879c14.84058 0 25.075462-10.234883 25.075462-24.563718V619.722139c0-13.817091-10.234883-24.051974-25.075462-24.051974h-250.242879c-14.84058 0-24.051974 10.234883-24.051974 24.051974v98.766617z" fill="#707070" p-id="7017"></path></svg>