<?xml version="1.0" standalone="no"?><!DOCTYPE svg PUBLIC "-//W3C//DTD SVG 1.1//EN" "http://www.w3.org/Graphics/SVG/1.1/DTD/svg11.dtd"><svg class="icon" width="200px" height="200.00px" viewBox="0 0 1024 1024" version="1.1" xmlns="http://www.w3.org/2000/svg"><path fill="#ffffff" d="M919.04 256c43.52 0 79.36 35.84 79.36 81.92v578.56c0 46.08-35.84 81.92-79.36 81.92H104.96C61.44 998.4 25.6 962.56 25.6 916.48V337.92C25.6 291.84 61.44 256 104.96 256h199.68c-2.56 12.8 17.92 69.12 17.92 81.92H102.4v578.56h814.08V256z m-92.16 245.76c-12.8 0-23.04-5.12-33.28-12.8l-81.92-81.92c-84.48 56.32-197.12 46.08-271.36-23.04s-92.16-179.2-43.52-268.8C445.44 25.6 547.84-17.92 645.12 7.68c97.28 25.6 166.4 112.64 166.4 215.04 0 43.52-12.8 84.48-35.84 120.32l81.92 81.92c12.8 12.8 17.92 33.28 10.24 48.64-5.12 17.92-23.04 28.16-40.96 28.16z m-235.52-409.6c-71.68 0-130.56 58.88-130.56 130.56s58.88 130.56 130.56 130.56 130.56-58.88 130.56-130.56c-2.56-71.68-58.88-130.56-130.56-130.56z m-122.88 542.72c12.8 7.68 25.6 20.48 33.28 35.84 7.68 15.36 10.24 33.28 10.24 53.76 0 17.92-5.12 33.28-15.36 48.64-10.24 12.8-20.48 23.04-35.84 33.28-12.8 7.68-30.72 15.36-46.08 20.48-12.8 2.56-23.04 5.12-35.84 5.12v12.8c0 5.12-2.56 7.68-5.12 10.24-2.56 2.56-7.68 5.12-10.24 5.12H332.8c-5.12 0-7.68-2.56-10.24-5.12-2.56-2.56-5.12-7.68-5.12-10.24v-15.36c-30.72-2.56-61.44-10.24-81.92-23.04-25.6-15.36-43.52-40.96-53.76-71.68 0-5.12-2.56-10.24-2.56-12.8v-12.8c0-5.12 0-10.24 5.12-12.8 2.56-2.56 7.68-5.12 12.8-5.12h40.96c5.12 0 7.68 2.56 10.24 5.12 2.56 2.56 5.12 7.68 5.12 10.24 0 7.68 2.56 17.92 5.12 25.6 2.56 7.68 7.68 15.36 15.36 20.48 7.68 5.12 15.36 10.24 25.6 15.36 5.12 2.56 12.8 2.56 20.48 5.12v-115.2c-12.8-2.56-25.6-5.12-35.84-10.24-15.36-5.12-30.72-10.24-43.52-17.92-12.8-7.68-23.04-17.92-30.72-30.72-7.68-12.8-12.8-30.72-12.8-46.08 0-15.36 5.12-30.72 12.8-46.08 7.68-12.8 17.92-25.6 30.72-33.28 12.8-10.24 28.16-15.36 43.52-20.48 10.24-2.56 23.04-5.12 35.84-5.12v-15.36c0-5.12 2.56-7.68 5.12-10.24 2.56-2.56 7.68-5.12 10.24-5.12h28.16c5.12 0 7.68 2.56 10.24 5.12 2.56 2.56 5.12 7.68 5.12 10.24v15.36c12.8 0 23.04 2.56 35.84 5.12 15.36 5.12 30.72 10.24 43.52 17.92 12.8 7.68 23.04 20.48 30.72 33.28 7.68 12.8 12.8 28.16 12.8 43.52 0 5.12-2.56 7.68-5.12 12.8-5.12 0-10.24 2.56-12.8 2.56h-40.96c-5.12 0-7.68-2.56-10.24-5.12-2.56-2.56-5.12-7.68-5.12-10.24 0-5.12-2.56-10.24-5.12-15.36-2.56-5.12-7.68-10.24-12.8-12.8-5.12-5.12-12.8-7.68-20.48-10.24-2.56 0-7.68-2.56-10.24-2.56v99.84c15.36 2.56 30.72 7.68 43.52 10.24 17.92 2.56 33.28 10.24 46.08 17.92zM304.64 588.8c2.56 0 7.68 2.56 12.8 2.56v-87.04c-5.12 0-7.68 2.56-12.8 2.56-7.68 2.56-15.36 5.12-23.04 10.24-5.12 5.12-10.24 7.68-12.8 15.36-2.56 5.12-5.12 10.24-5.12 17.92 0 7.68 2.56 15.36 5.12 17.92 2.56 5.12 7.68 10.24 12.8 12.8l23.04 7.68z m115.2 166.4c7.68-5.12 12.8-10.24 15.36-17.92 2.56-5.12 5.12-12.8 5.12-20.48 0-10.24-2.56-17.92-5.12-20.48-2.56-5.12-7.68-10.24-15.36-15.36-7.68-5.12-15.36-7.68-25.6-10.24-5.12-2.56-10.24-2.56-17.92-5.12v104.96c5.12 0 10.24-2.56 15.36-2.56 12.8-2.56 20.48-7.68 28.16-12.8z m181.76-12.8h204.8c20.48 0 38.4 17.92 38.4 38.4s-17.92 38.4-38.4 38.4h-204.8c-20.48 0-38.4-17.92-38.4-38.4s17.92-38.4 38.4-38.4z m0-128h204.8c20.48 0 38.4 17.92 38.4 38.4s-17.92 38.4-38.4 38.4h-204.8c-20.48 0-38.4-17.92-38.4-38.4s17.92-38.4 38.4-38.4z"  /></svg>