<?xml version="1.0" standalone="no"?><!DOCTYPE svg PUBLIC "-//W3C//DTD SVG 1.1//EN" "http://www.w3.org/Graphics/SVG/1.1/DTD/svg11.dtd"><svg class="icon" width="200px" height="200.00px" viewBox="0 0 1024 1024" version="1.1" xmlns="http://www.w3.org/2000/svg"><path fill="#000000" d="M511.666402 64.021106c-247.27171 0-447.725114 200.453405-447.725114 447.725114s200.453405 447.725114 447.725114 447.725114 447.725114-200.453405 447.725115-447.725114S758.938112 64.021106 511.666402 64.021106z m286.921755 734.647892c-37.279045 37.279045-80.677461 66.541509-128.991839 86.976934-49.998741 21.147646-103.133915 31.869848-157.930939 31.869848s-107.933221-10.723226-157.930939-31.869848c-48.313356-20.435425-91.712795-49.697889-128.991839-86.976934-37.279045-37.279045-66.541509-80.677461-86.976934-128.991839-21.147646-49.998741-31.869848-103.133915-31.869848-157.930939s10.723226-107.933221 31.869848-157.930939c20.435425-48.313356 49.697889-91.712795 86.976934-128.991839 37.279045-37.279045 80.677461-66.541509 128.991839-86.976934C403.733181 116.698862 456.869379 105.97666 511.666402 105.97666s107.933221 10.723226 157.930939 31.869848c48.313356 20.435425 91.712795 49.697889 128.99184 86.976934 37.279045 37.279045 66.541509 80.677461 86.976933 128.991839 21.147646 49.998741 31.869848 103.133915 31.869848 157.930939s-10.723226 107.933221-31.869848 157.930939c-20.435425 48.313356-49.698912 91.712795-86.977957 128.991839z"  /><path fill="#000000" d="M566.484915 431.947779c-4.814656-15.436574-21.478174-27.076682-38.758745-27.076682h-33.611516c-17.279548 0-33.943067 11.641131-38.758745 27.076682l-78.836533 252.705466c-4.319375 13.848403 0.234337 31.540344 10.828626 42.066071l98.619088 98.002035c6.482645 6.439666 15.576767 10.133801 24.951275 10.133801 9.376555 0 18.470677-3.694135 24.951275-10.133801l98.623182-98.002035c10.593266-10.525728 15.144932-28.217668 10.825556-42.066071l-78.833463-252.705466zM441.215864 353.400842c8.487302 11.541871 25.556049 19.919678 40.58944 19.919679h58.226123c15.034415 0 32.103162-8.376785 40.587393-19.919679l44.88835-61.053517c6.442736-8.765641 7.485485-18.940374 2.791579-27.218922-4.695952-8.277524-14.316054-13.220093-25.733081-13.220093H419.273109c-11.419074 0-21.037129 4.941546-25.734104 13.220093s-3.651157 18.453281 2.791579 27.218922l44.88528 61.053517z"  /></svg>