<?xml version="1.0" standalone="no"?><!DOCTYPE svg PUBLIC "-//W3C//DTD SVG 1.1//EN" "http://www.w3.org/Graphics/SVG/1.1/DTD/svg11.dtd"><svg class="icon" width="200px" height="200.00px" viewBox="0 0 1024 1024" version="1.1" xmlns="http://www.w3.org/2000/svg"><path fill="#000000" d="M348.16 430.08m-61.44 0a61.44 61.44 0 1 0 122.88 0 61.44 61.44 0 1 0-122.88 0Z"  /><path fill="#000000" d="M512 930.816c-228.352 0-413.696-185.856-413.696-413.696 0-228.352 185.856-413.696 413.696-413.696 228.352 0 413.696 185.856 413.696 413.696 0 228.352-185.344 413.696-413.696 413.696z m0-786.432c-205.824 0-372.736 167.424-372.736 372.736 0 205.824 167.424 372.736 372.736 372.736 205.824 0 372.736-167.424 372.736-372.736 0-205.824-166.912-372.736-372.736-372.736z"  /><path fill="#000000" d="M701.44 430.08m-61.44 0a61.44 61.44 0 1 0 122.88 0 61.44 61.44 0 1 0-122.88 0Z"  /><path fill="#000000" d="M717.824 692.736H321.536c-11.264 0-20.48-9.216-20.48-20.48s9.216-20.48 20.48-20.48h396.8c11.264 0 20.48 9.216 20.48 20.48s-9.728 20.48-20.992 20.48z"  /></svg>