<?xml version="1.0" standalone="no"?><!DOCTYPE svg PUBLIC "-//W3C//DTD SVG 1.1//EN" "http://www.w3.org/Graphics/SVG/1.1/DTD/svg11.dtd"><svg class="icon" width="200px" height="200.00px" viewBox="0 0 1024 1024" version="1.1" xmlns="http://www.w3.org/2000/svg"><path fill="#333333" d="M1023.658667 818.517333c-3.413333 44.714667-38.570667 80.213333-82.602667 83.626667l-750.933333 0.341333-0.341334-0.341333c-44.032-3.413333-79.189333-39.253333-82.602666-83.626667h-0.341334v-37.205333h-23.552l-0.341333-0.341333c-44.032-3.413333-79.189333-39.253333-82.602667-83.626667H0V215.04h0.341333c3.413333-44.714667 38.570667-80.213333 82.602667-83.626667l750.933333-0.341333 0.341334 0.341333c44.032 3.413333 79.189333 39.253333 82.602666 83.626667h0.341334v37.205333h23.552l0.341333 0.341334c44.032 3.413333 79.189333 39.253333 82.602667 83.626666h0.341333l-0.341333 482.304z m-170.666667-160.085333h-133.12c-13.653333 0-24.576-11.264-24.576-24.917333s10.922667-24.917333 24.576-24.917334h133.12V310.613333h-133.12c-13.653333 0-24.576-11.264-24.576-24.917333s10.922667-24.917333 24.576-24.917333h133.12V215.04l-1.024-4.096c-2.048-6.485333-6.144-11.946667-11.605333-15.701333l-763.221334 1.024v-0.682667c-5.461333 3.754667-9.557333 9.216-11.605333 15.701333-0.341333 1.365333-1.024 2.730667-1.024 4.096v45.738667h131.413333c13.653333 0 24.576 11.264 24.576 24.917333s-10.922667 24.917333-24.576 24.917334H64.170667v297.984h131.413333c13.653333 0 24.576 11.264 24.576 24.917333s-10.922667 24.917333-24.576 24.917333H64.170667v38.912l1.024 4.096c2.048 6.485333 6.144 11.946667 11.605333 15.701334v-0.682667H839.68v0.682667c5.461333-3.754667 9.557333-9.216 11.605333-15.701334 0.341333-1.365333 1.024-2.730667 1.024-4.096v-39.253333z m106.837333 160.085333V336.213333l-1.024-4.096c-2.048-6.485333-6.144-11.946667-11.605333-15.701333v1.024h-29.696v379.904h-0.341333c-3.413333 44.714667-38.570667 80.213333-82.602667 83.626667l-663.210667 0.341333v36.864l1.024 4.096c2.048 6.485333 6.144 11.946667 11.605334 15.701333l762.88-0.682666v0.682666c5.461333-3.754667 9.557333-9.216 11.605333-15.701333 0.682667-1.024 1.024-2.389333 1.365333-3.754667zM448.853333 439.978667c3.413333 1.706667 8.192 3.754667 13.653334 5.461333 5.461333 2.048 12.970667 4.096 21.504 6.826667 9.216 2.730667 18.090667 6.144 26.282666 9.557333 8.192 3.754667 15.36 8.192 21.504 13.312 6.144 5.12 10.581333 11.605333 14.336 19.456 3.413333 7.509333 5.12 17.066667 5.12 27.648 0 11.264-2.389333 21.162667-7.509333 30.037333-4.778667 8.874667-11.605333 16.384-19.456 22.528-8.192 6.144-17.066667 10.922667-27.306667 14.336-1.706667 0.682667-3.413333 1.024-5.12 1.365334v57.685333c0 13.653333-10.922667 24.917333-24.576 24.917333s-24.576-11.264-24.576-24.917333v-56.32c-3.754667-0.682667-7.168-1.706667-10.581333-2.730667-10.24-3.413333-19.114667-7.168-26.282667-11.946666-7.168-4.437333-12.629333-9.216-16.725333-14.336-4.096-4.778667-5.802667-8.874667-5.802667-12.288 0-3.072 0.341333-6.485333 0.682667-10.581334 0.682667-3.754667 1.365333-7.509333 2.730667-10.922666s3.072-6.144 5.12-8.192c2.048-2.048 4.778667-3.072 7.850666-3.072 2.730667 0 5.802667 1.706667 8.533334 4.778666 3.072 3.072 6.826667 6.485333 11.605333 10.24s10.922667 6.826667 18.432 9.898667c7.509333 3.072 17.066667 4.437333 28.672 4.437333 9.216 0 16.725333-2.048 22.869333-6.144 6.144-4.096 9.216-9.898667 9.216-17.408 0-3.413333-0.682667-6.144-1.706666-8.874666-1.365333-2.730667-3.413333-5.12-6.826667-7.509334-3.413333-2.389333-8.192-4.778667-13.994667-7.168-5.802667-2.389333-13.653333-4.778667-22.869333-7.850666-11.605333-3.413333-21.504-6.826667-29.696-10.581334-8.192-3.754667-15.018667-7.850667-20.48-12.970666-5.461333-5.12-9.216-10.922667-11.946667-18.090667-2.730667-6.826667-3.754667-15.36-3.754666-24.917333 0-10.24 2.048-19.456 6.144-27.648 4.096-8.192 9.898667-15.018667 17.066666-20.821334 7.168-5.802667 15.701333-9.898667 25.258667-12.970666 2.048-0.682667 4.096-1.024 5.802667-1.706667V310.613333c0-13.653333 10.922667-24.917333 24.576-24.917333s24.576 11.264 24.576 24.917333v51.882667c2.389333 0.341333 4.437333 1.024 6.485333 1.365333 9.557333 2.389333 17.408 5.802667 24.234667 9.557334 6.826667 3.754667 11.946667 8.192 15.701333 12.629333 3.754667 4.437333 5.802667 8.533333 5.802667 11.946667 0 4.096-0.341333 8.192-1.024 12.288-0.682667 4.096-1.706667 7.509333-3.072 10.922666-1.365333 3.072-3.072 5.802667-5.461334 7.850667-2.048 2.048-4.778667 3.072-7.850666 3.072-2.048 0-3.754667-0.682667-5.802667-2.389333-2.048-1.365333-4.778667-3.754667-8.192-6.826667-6.144-5.12-12.629333-8.874667-18.773333-11.946667-6.144-3.072-15.018667-4.778667-26.282667-5.12-7.168-0.341333-13.653333 1.024-19.456 4.096-5.802667 3.072-8.874667 8.192-8.874667 15.36 0 3.413333 0.682667 6.144 2.048 8.192 2.048 2.389333 4.437333 4.437333 8.192 6.485334z m0 0" /></svg>